HIERARCHY
ROOT hip
{
  OFFSET 0.0 0.0 0.0
  CHANNELS 6 Xposition Yposition Zposition Zrotation Yrotation Xrotation
  JOINT abdomen
  {
    OFFSET 0.0 20.6881 -0.73152
    CHANNELS 3 Zrotation Xrotation Yrotation
    JOINT chest
    {
      OFFSET 0.0 11.7043 -0.48768
      CHANNELS 3 Zrotation Xrotation Yrotation
      JOINT neck
      {
        OFFSET 0.0 22.1894 -2.19456
        CHANNELS 3 Zrotation Xrotation Yrotation
        JOINT head
        {
          OFFSET -0.24384 7.07133 1.2192
          CHANNELS 3 Zrotation Xrotation Yrotation
          JOINT leftEye
          {
            OFFSET 4.14528 8.04674 8.04672
            CHANNELS 3 Zrotation Xrotation Yrotation
            End Site
            {
              OFFSET 1.0 0.0 0.0
            }
          }
          JOINT rightEye
          {
            OFFSET -3.6576 8.04674 8.04672
            CHANNELS 3 Zrotation Xrotation Yrotation
            End Site
            {
              OFFSET 1.0 0.0 0.0
            }
          }
        }
      }
      JOINT rCollar
      {
        OFFSET -2.68224 19.2634 -4.8768
        CHANNELS 3 Zrotation Xrotation Yrotation
        JOINT rShldr
        {
          OFFSET -8.77824 -1.95073 1.46304
          CHANNELS 3 Zrotation Xrotation Yrotation
          JOINT rForeArm
          {
            OFFSET -28.1742 -1.7115 0.48768
            CHANNELS 3 Zrotation Xrotation Yrotation
            JOINT rHand
            {
              OFFSET -22.5879 0.773209 7.07136
              CHANNELS 3 Zrotation Xrotation Yrotation
              JOINT rThumb1
              {
                OFFSET -1.2192 -0.487915 3.41376
                CHANNELS 3 Zrotation Xrotation Yrotation
                JOINT rThumb2
                {
                  OFFSET -3.37035 -0.52449 3.41376
                  CHANNELS 3 Zrotation Xrotation Yrotation
                  End Site
                  {
                    OFFSET -1.78271 -1.18214 1.43049
                  }
                }
              }
              JOINT rIndex1
              {
                OFFSET -7.75947 0.938293 5.60832
                CHANNELS 3 Zrotation Xrotation Yrotation
                JOINT rIndex2
                {
                  OFFSET -2.54057 -0.884171 1.56538
                  CHANNELS 3 Zrotation Xrotation Yrotation
                  End Site
                  {
                    OFFSET -1.62519 -0.234802 1.16502
                  }
                }
              }
              JOINT rMid1
              {
                OFFSET -8.24714 1.18213 3.41376
                CHANNELS 3 Zrotation Xrotation Yrotation
                JOINT rMid2
                {
                  OFFSET -3.10165 -0.590103 1.0647
                  CHANNELS 3 Zrotation Xrotation Yrotation
                  End Site
                  {
                    OFFSET -2.48547 -0.328903 0.83742
                  }
                }
              }
              JOINT rRing1
              {
                OFFSET -8.82822 0.546677 1.51678
                CHANNELS 3 Zrotation Xrotation Yrotation
                JOINT rRing2
                {
                  OFFSET -2.60934 -0.819778 -0.0198488
                  CHANNELS 3 Zrotation Xrotation Yrotation
                  End Site
                  {
                    OFFSET -2.33842 -0.294052 0.168128
                  }
                }
              }
              JOINT rPinky1
              {
                OFFSET -8.27202 -0.0477905 -0.4584
                CHANNELS 3 Zrotation Xrotation Yrotation
                JOINT rPinky2
                {
                  OFFSET -1.82734 -0.647385 -0.700984
                  CHANNELS 3 Zrotation Xrotation Yrotation
                  End Site
                  {
                    OFFSET -1.69225 -0.51767 -0.607171
                  }
                }
              }
            }
          }
        }
      }
      JOINT lCollar
      {
        OFFSET 2.68224 19.2634 -4.8768
        CHANNELS 3 Zrotation Xrotation Yrotation
        JOINT lShldr
        {
          OFFSET 8.77824 -1.95073 1.46304
          CHANNELS 3 Zrotation Xrotation Yrotation
          JOINT lForeArm
          {
            OFFSET 28.1742 -1.7115 0.48768
            CHANNELS 3 Zrotation Xrotation Yrotation
            JOINT lHand
            {
              OFFSET 22.5879 0.773209 7.07136
              CHANNELS 3 Zrotation Xrotation Yrotation
              JOINT lThumb1
              {
                OFFSET 1.2192 -0.487915 3.41376
                CHANNELS 3 Zrotation Xrotation Yrotation
                JOINT lThumb2
                {
                  OFFSET 3.37035 -0.52449 3.41376
                  CHANNELS 3 Zrotation Xrotation Yrotation
                  End Site
                  {
                    OFFSET 1.78271 -1.18214 1.43049
                  }
                }
              }
              JOINT lIndex1
              {
                OFFSET 7.75947 0.938293 5.60832
                CHANNELS 3 Zrotation Xrotation Yrotation
                JOINT lIndex2
                {
                  OFFSET 2.54057 -0.884171 1.56538
                  CHANNELS 3 Zrotation Xrotation Yrotation
                  End Site
                  {
                    OFFSET 1.62519 -0.234802 1.16502
                  }
                }
              }
              JOINT lMid1
              {
                OFFSET 8.24714 1.18213 3.41376
                CHANNELS 3 Zrotation Xrotation Yrotation
                JOINT lMid2
                {
                  OFFSET 3.10165 -0.590103 1.0647
                  CHANNELS 3 Zrotation Xrotation Yrotation
                  End Site
                  {
                    OFFSET 2.48547 -0.328903 0.83742
                  }
                }
              }
              JOINT lRing1
              {
                OFFSET 8.82822 0.546677 1.51678
                CHANNELS 3 Zrotation Xrotation Yrotation
                JOINT lRing2
                {
                  OFFSET 2.60934 -0.819778 -0.0198488
                  CHANNELS 3 Zrotation Xrotation Yrotation
                  End Site
                  {
                    OFFSET 2.33842 -0.294052 0.168128
                  }
                }
              }
              JOINT lPinky1
              {
                OFFSET 8.27202 -0.0477905 -0.4584
                CHANNELS 3 Zrotation Xrotation Yrotation
                JOINT lPinky2
                {
                  OFFSET 1.82734 -0.647385 -0.700984
                  CHANNELS 3 Zrotation Xrotation Yrotation
                  End Site
                  {
                    OFFSET 1.69225 -0.51767 -0.607171
                  }
                }
              }
            }
          }
        }
      }
    }
  }
  JOINT rButtock
  {
    OFFSET -8.77824 4.35084 1.2192
    CHANNELS 3 Zrotation Xrotation Yrotation
    JOINT rThigh
    {
      OFFSET 0.0 -1.70687 -2.19456
      CHANNELS 3 Zrotation Xrotation Yrotation
      JOINT rShin
      {
        OFFSET 0.0 -36.8199 0.73152
        CHANNELS 3 Zrotation Xrotation Yrotation
        JOINT rFoot
        {
          OFFSET 0.73152 -45.1104 -5.12064
          CHANNELS 3 Zrotation Xrotation Yrotation
          End Site
          {
            OFFSET -1.1221 -3.69964 12.103
          }
        }
      }
    }
  }
  JOINT lButtock
  {
    OFFSET 8.77824 4.35084 1.2192
    CHANNELS 3 Zrotation Xrotation Yrotation
    JOINT lThigh
    {
      OFFSET 0.0 -1.70687 -2.19456
      CHANNELS 3 Zrotation Xrotation Yrotation
      JOINT lShin
      {
        OFFSET 0.0 -36.8199 0.73152
        CHANNELS 3 Zrotation Xrotation Yrotation
        JOINT lFoot
        {
          OFFSET -0.73152 -45.1104 -5.12064
          CHANNELS 3 Zrotation Xrotation Yrotation
          End Site
          {
            OFFSET 1.1221 -3.69964 12.103
          }
        }
      }
    }
  }
}
MOTION
Frames: 9
Frame Time: 0.00833333
-142.28 79.7087 8.43448 -86.7285 86.5342 -75.5708 12.7425 3.91353 8.14563 -10.2157 -17.9771 1.14215 -2.59721 1.21638 -6.44006 16.3688 28.4123 -12.5276 -0.0 0.0 0.0 -0.0 0.0 0.0 5.2466e-16 -2.02911e-13 -2.67862e-14 88.1933 30.3341 -22.642 -14.0612 -7.00401 25.6775 -0.121141 -9.87605 -1.40204 4.47733e-10 4.61085e-10 5.55252e-10 7.75028e-10 7.98488e-10 9.61309e-10 4.47739e-10 4.61085e-10 5.55245e-10 7.73091 5.47488 0.417314 4.47741e-10 4.61087e-10 5.55249e-10 2.90554 0.965183 0.102902 4.4774e-10 4.61085e-10 5.55252e-10 10.2786 0.731801 0.0259123 4.47729e-10 4.61089e-10 5.55255e-10 2.22167 -0.733487 -0.20892 2.70493e-16 -2.02909e-13 -2.72832e-14 -72.9563 42.9072 14.32 16.3426 -9.00941 -30.3991 0.000991248 0.898965 -0.126352 4.34596e-10 -4.40348e-11 -1.73633e-10 7.47998e-10 -7.45776e-11 -3.00541e-10 4.34587e-10 -4.40439e-11 -1.7363e-10 -7.73091 5.47488 -0.417314 4.34591e-10 -4.40427e-11 -1.7363e-10 -2.90554 0.965183 -0.102902 4.34585e-10 -4.40411e-11 -1.7363e-10 -10.2786 0.731801 -0.0259123 4.34595e-10 -4.40395e-11 -1.73633e-10 -2.22167 -0.733487 0.20892 -2.03217e-16 0.0 -3.88251e-19 22.4711 -23.8111 13.2211 -0.0825214 23.0176 -0.019138 -3.65671 -17.2493 -16.1446 2.03217e-16 0.0 3.88251e-19 7.48808 -27.5782 8.16324 0.935639 60.0705 -1.98444 3.39035 -6.30255 18.532
-140.894 79.7466 8.67825 -84.6786 86.4267 -73.5543 13.3868 3.91842 8.55554 -10.0753 -17.97 1.28054 -2.62042 1.23044 -6.46266 16.1428 28.2794 -12.5127 -0.0 0.0 0.0 -0.0 0.0 0.0 2.82504e-14 -7.94042e-14 -5.24605e-14 87.578 30.9278 -21.9029 -14.2064 -7.12339 25.9681 -0.121841 -9.9035 -1.40602 -1.90278e-10 4.14391e-10 1.17831e-09 -3.28847e-10 7.19323e-10 2.03473e-09 -1.90271e-10 4.14391e-10 1.1783e-09 7.73091 5.47488 0.417314 -1.9027e-10 4.14393e-10 1.17831e-09 2.90554 0.965183 0.102902 -1.9027e-10 4.14391e-10 1.17831e-09 10.2786 0.731801 0.0259123 -1.90282e-10 4.14394e-10 1.17831e-09 2.22167 -0.733487 -0.20892 2.80386e-14 -7.94023e-14 -5.2954e-14 -73.1388 42.5256 14.5574 16.3356 -9.00272 -30.3846 0.000779819 0.807071 -0.113433 6.39637e-10 -2.27676e-10 -7.76363e-10 1.10023e-09 -3.92292e-10 -1.34412e-09 6.3963e-10 -2.27683e-10 -7.7636e-10 -7.73091 5.47488 -0.417314 6.39633e-10 -2.27683e-10 -7.76365e-10 -2.90554 0.965183 -0.102902 6.39626e-10 -2.2768e-10 -7.7636e-10 -10.2786 0.731801 -0.0259123 6.39635e-10 -2.27679e-10 -7.76363e-10 -2.22167 -0.733487 0.20892 -2.03217e-16 0.0 -3.88251e-19 23.2575 -22.4308 13.6125 -0.0762704 22.8106 0.0802192 -3.94144 -18.2586 -16.546 2.03217e-16 0.0 3.88251e-19 8.33187 -30.7548 8.66661 0.95721 60.5584 -2.14407 3.49469 -7.92787 17.5395
-139.358 79.8489 8.89252 -81.0485 86.2491 -70.0865 13.7987 3.89349 9.03326 -9.90905 -17.9927 1.42368 -2.63997 1.24321 -6.48129 15.8909 28.0389 -12.484 -0.0 0.0 0.0 -0.0 0.0 0.0 5.35741e-14 1.91624e-14 -7.55941e-14 86.9458 31.4606 -21.188 -14.3873 -7.27288 26.3336 -0.121906 -9.90571 -1.40634 -9.98338e-10 3.09984e-10 1.91351e-09 -1.72717e-09 5.40379e-10 3.30112e-09 -9.98328e-10 3.09986e-10 1.91349e-09 7.73091 5.47488 0.417314 -9.98331e-10 3.09986e-10 1.91351e-09 2.90554 0.965183 0.102902 -9.9833e-10 3.09985e-10 1.91351e-09 10.2786 0.731801 0.0259123 -9.98341e-10 3.09987e-10 1.91351e-09 2.22167 -0.733487 -0.20892 5.34501e-14 1.91629e-14 -7.60444e-14 -73.364 42.0217 14.8948 16.351 -9.01746 -30.4174 8.95088e-05 0.496967 -0.0698436 9.34591e-10 -4.90305e-10 -1.52339e-09 1.60762e-09 -8.469e-10 -2.63767e-09 9.34586e-10 -4.90308e-10 -1.52338e-09 -7.73091 5.47488 -0.417314 9.3459e-10 -4.90311e-10 -1.5234e-09 -2.90554 0.965183 -0.102902 9.34582e-10 -4.90306e-10 -1.52338e-09 -10.2786 0.731801 -0.0259123 9.34589e-10 -4.90306e-10 -1.52339e-09 -2.22167 -0.733487 0.20892 -2.03217e-16 0.0 -3.88251e-19 23.7892 -20.8686 13.9665 -0.0555267 22.3857 0.239006 -4.24169 -19.1989 -17.0067 2.03217e-16 0.0 3.88251e-19 8.64133 -33.6415 8.75371 0.886293 59.9553 -2.22182 3.39044 -8.95545 16.7039
-137.706 79.9906 9.04211 -77.4459 85.9751 -66.7075 14.1154 3.85322 9.52081 -9.77161 -18.0483 1.55431 -2.6542 1.24161 -6.48963 15.6026 27.7489 -12.43 -0.0 0.0 0.0 -0.0 0.0 0.0 6.78673e-14 4.36857e-14 -8.98414e-14 86.3142 31.9607 -20.4924 -14.5727 -7.42692 26.7116 -0.122065 -9.91222 -1.40728 -1.71242e-09 1.7836e-10 2.56111e-09 -2.96331e-09 3.13847e-10 4.41677e-09 -1.71241e-09 1.78362e-10 2.56109e-09 7.73091 5.47488 0.417314 -1.71242e-09 1.7836e-10 2.56111e-09 2.90554 0.965183 0.102902 -1.71241e-09 1.7836e-10 2.56111e-09 10.2786 0.731801 0.0259123 -1.71243e-09 1.78361e-10 2.56111e-09 2.22167 -0.733487 -0.20892 6.78387e-14 4.36846e-14 -9.02347e-14 -73.5912 41.4732 15.2918 16.371 -9.03658 -30.46 -0.00015017 0.149701 -0.0210379 1.22615e-09 -7.42169e-10 -2.16505e-09 2.1096e-09 -1.28308e-09 -3.74898e-09 1.22614e-09 -7.42167e-10 -2.16504e-09 -7.73091 5.47488 -0.417314 1.22615e-09 -7.42173e-10 -2.16506e-09 -2.90554 0.965183 -0.102902 1.22614e-09 -7.42167e-10 -2.16504e-09 -10.2786 0.731801 -0.0259123 1.22615e-09 -7.42168e-10 -2.16505e-09 -2.22167 -0.733487 0.20892 -2.03217e-16 0.0 -3.88251e-19 24.2031 -19.1812 14.3487 -0.028251 21.7537 0.413999 -4.53628 -19.9741 -17.5556 2.03217e-16 0.0 3.88251e-19 8.64727 -36.1519 8.42763 0.755193 58.2971 -2.22824 3.26452 -9.7027 16.1718
-136.072 80.1538 9.15705 -76.6349 85.6342 -66.0406 14.474 3.81215 9.96022 -9.71763 -18.1403 1.65516 -2.66145 1.2126 -6.48138 15.2672 27.4674 -12.3387 -0.0 0.0 0.0 -0.0 0.0 0.0 6.25016e-14 -5.49374e-14 -8.88567e-14 85.6987 32.4569 -19.8108 -14.7324 -7.56086 27.0397 -0.12305 -9.95258 -1.41313 -2.06851e-09 5.0011e-11 2.92137e-09 -3.58062e-09 9.1918e-11 5.03798e-09 -2.0685e-09 5.00138e-11 2.92136e-09 7.73091 5.47488 0.417314 -2.0685e-09 5.00103e-11 2.92138e-09 2.90554 0.965183 0.102902 -2.0685e-09 5.00109e-11 2.92137e-09 10.2786 0.731801 0.0259123 -2.06851e-09 5.00122e-11 2.92138e-09 2.22167 -0.733487 -0.20892 6.25381e-14 -5.49395e-14 -8.92046e-14 -73.7836 40.9579 15.7097 16.3778 -9.04308 -30.4743 3.5336e-06 -0.0536725 0.00754318 1.421e-09 -8.93516e-10 -2.4517e-09 2.44563e-09 -1.5455e-09 -4.24582e-09 1.421e-09 -8.93512e-10 -2.45169e-09 -7.73091 5.47488 -0.417314 1.421e-09 -8.93519e-10 -2.45171e-09 -2.90554 0.965183 -0.102902 1.42099e-09 -8.93513e-10 -2.45169e-09 -10.2786 0.731801 -0.0259123 1.421e-09 -8.93514e-10 -2.4517e-09 -2.22167 -0.733487 0.20892 -2.03217e-16 0.0 -3.88251e-19 24.6306 -17.4261 14.8213 -0.00385148 20.9255 0.562599 -4.80074 -20.4884 -18.2187 2.03217e-16 0.0 3.88251e-19 8.60353 -38.1928 7.69752 0.608823 55.6196 -2.18682 3.29039 -10.4927 16.0972
-134.492 80.3381 9.27364 -77.7258 85.1949 -67.2327 14.8845 3.79325 10.3356 -9.75647 -18.2868 1.71636 -2.65473 1.1365 -6.46049 14.862 27.2262 -12.2164 -0.0 0.0 0.0 -0.0 0.0 0.0 2.17423e-14 -3.91078e-13 -5.90627e-14 85.0863 32.9617 -19.1426 -14.8638 -7.67266 27.3095 -0.125445 -10.0493 -1.42714 -1.83891e-09 -7.93291e-11 2.86215e-09 -3.18578e-09 -1.33566e-10 4.93786e-09 -1.8389e-09 -7.93259e-11 2.86213e-09 7.73091 5.47488 0.417314 -1.83891e-09 -7.93311e-11 2.86216e-09 2.90554 0.965183 0.102902 -1.8389e-09 -7.93285e-11 2.86214e-09 10.2786 0.731801 0.0259123 -1.83892e-09 -7.93264e-11 2.86215e-09 2.22167 -0.733487 -0.20892 2.18034e-14 -3.91081e-13 -5.93823e-14 -73.9378 40.4752 16.1252 16.3683 -9.03398 -30.4541 6.70882e-05 -0.0559255 0.00785938 1.50125e-09 -9.08765e-10 -2.18938e-09 2.58539e-09 -1.5728e-09 -3.79266e-09 1.50125e-09 -9.08758e-10 -2.18937e-09 -7.73091 5.47488 -0.417314 1.50125e-09 -9.08766e-10 -2.1894e-09 -2.90554 0.965183 -0.102902 1.50124e-09 -9.0876e-10 -2.18938e-09 -10.2786 0.731801 -0.0259123 1.50125e-09 -9.08762e-10 -2.18938e-09 -2.22167 -0.733487 0.20892 -2.03217e-16 0.0 -3.88251e-19 25.0437 -15.5462 15.373 0.0160531 19.8221 0.693286 -5.00378 -20.6761 -19.0042 2.03217e-16 0.0 3.88251e-19 8.46852 -39.6776 6.67848 0.470875 51.6796 -2.12326 3.46849 -11.175 16.5659
-132.938 80.5182 9.40113 -78.7049 84.7291 -68.3109 15.2825 3.78248 10.6781 -9.86069 -18.4804 1.74889 -2.63702 1.02567 -6.42847 14.3999 26.9887 -12.0667 -0.0 0.0 0.0 -0.0 0.0 0.0 -4.53308e-14 -9.0479e-13 -7.8054e-15 84.4756 33.4581 -18.4909 -14.9818 -7.77438 27.5512 -0.128798 -10.1817 -1.44634 -1.21688e-09 -2.21791e-10 2.51625e-09 -2.11285e-09 -3.83082e-10 4.34479e-09 -1.21687e-09 -2.21788e-10 2.51624e-09 7.73091 5.47488 0.417314 -1.21688e-09 -2.21795e-10 2.51627e-09 2.90554 0.965183 0.102902 -1.21687e-09 -2.2179e-10 2.51625e-09 10.2786 0.731801 0.0259123 -1.21688e-09 -2.21786e-10 2.51625e-09 2.22167 -0.733487 -0.20892 -4.52652e-14 -9.04792e-13 -8.10047e-15 -74.0699 39.9905 16.5624 16.3514 -9.01782 -30.4181 5.09342e-05 0.0433984 -0.00609977 1.51434e-09 -8.39664e-10 -1.55372e-09 2.61036e-09 -1.45449e-09 -2.69345e-09 1.51433e-09 -8.39656e-10 -1.55371e-09 -7.73091 5.47488 -0.417314 1.51434e-09 -8.39663e-10 -1.55372e-09 -2.90554 0.965183 -0.102902 1.51433e-09 -8.39659e-10 -1.55371e-09 -10.2786 0.731801 -0.0259123 1.51433e-09 -8.39661e-10 -1.55371e-09 -2.22167 -0.733487 0.20892 -2.03217e-16 0.0 -3.88251e-19 25.3779 -13.5391 15.9834 0.0391048 18.465 0.821539 -5.15362 -20.6023 -19.8904 2.03217e-16 0.0 3.88251e-19 8.10929 -40.6646 5.29329 0.336318 46.5421 -2.04924 3.7492 -11.6467 17.4822
-131.432 80.7751 9.4832 -78.3907 84.2906 -68.0659 15.6934 3.73887 11.0 -10.0299 -18.6858 1.76674 -2.62153 0.915075 -6.37534 13.925 26.71 -11.8738 -0.0 0.0 0.0 -0.0 0.0 0.0 -1.10125e-13 -1.3837e-12 3.98754e-14 83.8993 33.931 -17.855 -15.0838 -7.86316 27.7609 -0.132253 -10.3146 -1.46565 -5.69752e-10 -3.58676e-10 2.08142e-09 -9.96277e-10 -6.22918e-10 3.59799e-09 -5.69742e-10 -3.58673e-10 2.08141e-09 7.73091 5.47488 0.417314 -5.69759e-10 -3.58681e-10 2.08144e-09 2.90554 0.965183 0.102902 -5.69739e-10 -3.58673e-10 2.08142e-09 10.2786 0.731801 0.0259123 -5.69751e-10 -3.58668e-10 2.08142e-09 2.22167 -0.733487 -0.20892 -1.10067e-13 -1.3837e-12 3.96032e-14 -74.1756 39.5297 17.0554 16.3274 -8.9949 -30.3669 6.44403e-05 0.190193 -0.0267303 1.46494e-09 -7.27463e-10 -8.4937e-10 2.52759e-09 -1.26148e-09 -1.47517e-09 1.46493e-09 -7.27454e-10 -8.49355e-10 -7.73091 5.47488 -0.417314 1.46494e-09 -7.2746e-10 -8.49369e-10 -2.90554 0.965183 -0.102902 1.46493e-09 -7.27459e-10 -8.49362e-10 -10.2786 0.731801 -0.0259123 1.46494e-09 -7.2746e-10 -8.49364e-10 -2.22167 -0.733487 0.20892 -2.03217e-16 0.0 -3.88251e-19 25.7044 -11.5446 16.6954 0.0643149 17.0163 0.917175 -5.28378 -20.3673 -20.8582 2.03217e-16 0.0 3.88251e-19 7.65544 -41.2604 3.26961 0.209274 40.7056 -1.96635 4.23899 -12.2983 18.7383
-129.936 81.0009 9.62875 -76.7651 83.7758 -66.4807 16.1434 3.62165 11.3139 -10.2636 -18.8677 1.78388 -2.62153 0.839713 -6.29108 13.4827 26.3449 -11.6231 -0.0 0.0 0.0 -0.0 0.0 0.0 -1.44047e-13 -1.61542e-12 5.89397e-14 83.3909 34.3651 -17.2343 -15.1676 -7.93616 27.9341 -0.134865 -10.4131 -1.47996 -2.64886e-10 -4.71285e-10 1.75537e-09 -4.70508e-10 -8.19362e-10 3.0367e-09 -2.64878e-10 -4.71281e-10 1.75536e-09 7.73091 5.47488 0.417314 -2.64895e-10 -4.71291e-10 1.7554e-09 2.90554 0.965183 0.102902 -2.64873e-10 -4.71282e-10 1.75537e-09 10.2786 0.731801 0.0259123 -2.64885e-10 -4.71276e-10 1.75537e-09 2.22167 -0.733487 -0.20892 -1.44002e-13 -1.61542e-12 5.86912e-14 -74.2506 39.1182 17.6379 16.2964 -8.96548 -30.3007 0.000133847 0.330353 -0.0464287 1.35775e-09 -6.13408e-10 -3.81015e-10 2.34418e-09 -1.06471e-09 -6.6479e-10 1.35774e-09 -6.134e-10 -3.80999e-10 -7.73091 5.47488 -0.417314 1.35775e-09 -6.13405e-10 -3.81008e-10 -2.90554 0.965183 -0.102902 1.35774e-09 -6.13405e-10 -3.81007e-10 -10.2786 0.731801 -0.0259123 1.35775e-09 -6.13406e-10 -3.81008e-10 -2.22167 -0.733487 0.20892 -2.03217e-16 0.0 -3.88251e-19 26.0955 -9.70182 17.5472 0.0861466 15.6381 0.951181 -5.4332 -20.0705 -21.8905 2.03217e-16 0.0 3.88251e-19 7.23376 -41.5448 0.335601 0.0936876 34.668 -1.86853 5.07568 -13.5107 20.2398
